<mxfile host="app.diagrams.net" agent="Mozilla/5.0 (Windows NT 10.0; Win64; x64) AppleWebKit/537.36 (KHTML, like Gecko) Chrome/129.0.0.0 Safari/537.36" version="24.7.17">
  <diagram name="Página-1" id="LTdLwCGzsHMxlOJisRkr">
    <mxGraphModel dx="1909" dy="1274" grid="0" gridSize="10" guides="1" tooltips="1" connect="1" arrows="1" fold="1" page="0" pageScale="1" pageWidth="827" pageHeight="1169" math="0" shadow="0">
      <root>
        <mxCell id="0" />
        <mxCell id="1" parent="0" />
        <mxCell id="egm4CPHPBf7wos1IfI1G-66" value="" style="rounded=0;whiteSpace=wrap;html=1;fillColor=#f5f5f5;gradientColor=#b3b3b3;strokeColor=#666666;" vertex="1" parent="1">
          <mxGeometry x="-158" y="-217" width="1237" height="932" as="geometry" />
        </mxCell>
        <mxCell id="egm4CPHPBf7wos1IfI1G-1" value="&lt;font style=&quot;font-size: 20px;&quot;&gt;DER - Relacionamento e Entidade&lt;/font&gt;&lt;div style=&quot;font-size: 20px;&quot;&gt;&lt;font style=&quot;font-size: 20px;&quot;&gt;Sistema Techman&lt;/font&gt;&lt;/div&gt;" style="rounded=1;whiteSpace=wrap;html=1;fillColor=#ffcd28;gradientColor=#ffa500;strokeColor=#d79b00;" vertex="1" parent="1">
          <mxGeometry x="193" y="-191" width="496" height="79" as="geometry" />
        </mxCell>
        <mxCell id="egm4CPHPBf7wos1IfI1G-2" value="&lt;font style=&quot;font-size: 14px;&quot;&gt;Usuário&lt;/font&gt;" style="rounded=0;whiteSpace=wrap;html=1;fillColor=#dae8fc;gradientColor=#7ea6e0;strokeColor=#6c8ebf;" vertex="1" parent="1">
          <mxGeometry x="59" y="40" width="120" height="60" as="geometry" />
        </mxCell>
        <mxCell id="egm4CPHPBf7wos1IfI1G-3" value="&lt;font style=&quot;font-size: 14px;&quot;&gt;Perfil&lt;/font&gt;" style="rounded=0;whiteSpace=wrap;html=1;fillColor=#dae8fc;gradientColor=#7ea6e0;strokeColor=#6c8ebf;" vertex="1" parent="1">
          <mxGeometry x="735" y="40" width="120" height="60" as="geometry" />
        </mxCell>
        <mxCell id="egm4CPHPBf7wos1IfI1G-4" value="&lt;font style=&quot;font-size: 14px;&quot;&gt;Comentários&lt;/font&gt;" style="rounded=0;whiteSpace=wrap;html=1;fillColor=#dae8fc;gradientColor=#7ea6e0;strokeColor=#6c8ebf;" vertex="1" parent="1">
          <mxGeometry x="740" y="398.5" width="120" height="60" as="geometry" />
        </mxCell>
        <mxCell id="egm4CPHPBf7wos1IfI1G-5" value="&lt;font style=&quot;font-size: 14px;&quot;&gt;Equipamento&lt;/font&gt;" style="rounded=0;whiteSpace=wrap;html=1;fillColor=#dae8fc;gradientColor=#7ea6e0;strokeColor=#6c8ebf;" vertex="1" parent="1">
          <mxGeometry x="54" y="394.5" width="120" height="60" as="geometry" />
        </mxCell>
        <mxCell id="egm4CPHPBf7wos1IfI1G-6" value="&lt;font style=&quot;font-size: 14px;&quot;&gt;Faz&lt;/font&gt;" style="rhombus;whiteSpace=wrap;html=1;fillColor=#fff2cc;gradientColor=#ffd966;strokeColor=#d6b656;" vertex="1" parent="1">
          <mxGeometry x="403.5" y="398.5" width="84" height="65" as="geometry" />
        </mxCell>
        <mxCell id="egm4CPHPBf7wos1IfI1G-7" value="&lt;font style=&quot;font-size: 15px;&quot;&gt;Possui&lt;/font&gt;" style="rhombus;whiteSpace=wrap;html=1;fillColor=#fff2cc;gradientColor=#ffd966;strokeColor=#d6b656;" vertex="1" parent="1">
          <mxGeometry x="408" y="38.5" width="84" height="65" as="geometry" />
        </mxCell>
        <mxCell id="egm4CPHPBf7wos1IfI1G-9" value="&lt;font style=&quot;font-size: 14px;&quot;&gt;perfil&lt;/font&gt;" style="ellipse;whiteSpace=wrap;html=1;fillColor=#d5e8d4;gradientColor=#97d077;strokeColor=#82b366;" vertex="1" parent="1">
          <mxGeometry x="185" y="132.5" width="109" height="57" as="geometry" />
        </mxCell>
        <mxCell id="egm4CPHPBf7wos1IfI1G-10" value="&lt;font style=&quot;font-size: 14px;&quot;&gt;senha&lt;/font&gt;" style="ellipse;whiteSpace=wrap;html=1;fillColor=#d5e8d4;gradientColor=#97d077;strokeColor=#82b366;" vertex="1" parent="1">
          <mxGeometry x="65" y="194" width="109" height="57" as="geometry" />
        </mxCell>
        <mxCell id="egm4CPHPBf7wos1IfI1G-11" value="&lt;font style=&quot;font-size: 14px;&quot;&gt;equipamento&lt;/font&gt;" style="ellipse;whiteSpace=wrap;html=1;fillColor=#d5e8d4;gradientColor=#97d077;strokeColor=#82b366;" vertex="1" parent="1">
          <mxGeometry x="-75" y="552" width="109" height="57" as="geometry" />
        </mxCell>
        <mxCell id="egm4CPHPBf7wos1IfI1G-12" value="&lt;font style=&quot;font-size: 14px;&quot;&gt;perfil&lt;/font&gt;" style="ellipse;whiteSpace=wrap;html=1;fillColor=#d5e8d4;gradientColor=#97d077;strokeColor=#82b366;" vertex="1" parent="1">
          <mxGeometry x="842" y="-73" width="109" height="57" as="geometry" />
        </mxCell>
        <mxCell id="egm4CPHPBf7wos1IfI1G-15" value="&lt;font style=&quot;font-size: 14px;&quot;&gt;id_usuario&lt;/font&gt;" style="ellipse;whiteSpace=wrap;html=1;fillColor=#f8cecc;gradientColor=#ea6b66;strokeColor=#b85450;" vertex="1" parent="1">
          <mxGeometry x="-48" y="128" width="109" height="57" as="geometry" />
        </mxCell>
        <mxCell id="egm4CPHPBf7wos1IfI1G-16" value="&lt;font style=&quot;font-size: 14px;&quot;&gt;imagem&lt;/font&gt;" style="ellipse;whiteSpace=wrap;html=1;fillColor=#d5e8d4;gradientColor=#97d077;strokeColor=#82b366;" vertex="1" parent="1">
          <mxGeometry x="-19" y="625" width="109" height="57" as="geometry" />
        </mxCell>
        <mxCell id="egm4CPHPBf7wos1IfI1G-17" value="&lt;font style=&quot;font-size: 14px;&quot;&gt;descricao&lt;/font&gt;" style="ellipse;whiteSpace=wrap;html=1;fillColor=#d5e8d4;gradientColor=#97d077;strokeColor=#82b366;" vertex="1" parent="1">
          <mxGeometry x="116" y="625" width="109" height="57" as="geometry" />
        </mxCell>
        <mxCell id="egm4CPHPBf7wos1IfI1G-18" value="&lt;font style=&quot;font-size: 14px;&quot;&gt;ativo&lt;/font&gt;" style="ellipse;whiteSpace=wrap;html=1;fillColor=#d5e8d4;gradientColor=#97d077;strokeColor=#82b366;" vertex="1" parent="1">
          <mxGeometry x="187.5" y="552" width="109" height="57" as="geometry" />
        </mxCell>
        <mxCell id="egm4CPHPBf7wos1IfI1G-19" value="&lt;font style=&quot;font-size: 14px;&quot;&gt;comentario&lt;/font&gt;" style="ellipse;whiteSpace=wrap;html=1;fillColor=#d5e8d4;gradientColor=#97d077;strokeColor=#82b366;" vertex="1" parent="1">
          <mxGeometry x="691.5" y="552" width="109" height="57" as="geometry" />
        </mxCell>
        <mxCell id="egm4CPHPBf7wos1IfI1G-20" value="&lt;font style=&quot;font-size: 14px;&quot;&gt;perfil&lt;/font&gt;" style="ellipse;whiteSpace=wrap;html=1;fillColor=#d5e8d4;gradientColor=#97d077;strokeColor=#82b366;" vertex="1" parent="1">
          <mxGeometry x="819" y="552" width="109" height="57" as="geometry" />
        </mxCell>
        <mxCell id="egm4CPHPBf7wos1IfI1G-21" value="&lt;font style=&quot;font-size: 14px;&quot;&gt;data&lt;/font&gt;" style="ellipse;whiteSpace=wrap;html=1;fillColor=#d5e8d4;gradientColor=#97d077;strokeColor=#82b366;" vertex="1" parent="1">
          <mxGeometry x="890" y="482" width="109" height="57" as="geometry" />
        </mxCell>
        <mxCell id="egm4CPHPBf7wos1IfI1G-24" value="" style="endArrow=none;html=1;rounded=0;fontSize=12;startSize=8;endSize=8;curved=1;fillColor=#f8cecc;gradientColor=#ea6b66;strokeColor=#b85450;" edge="1" parent="1">
          <mxGeometry width="50" height="50" relative="1" as="geometry">
            <mxPoint x="-27.5" y="168" as="sourcePoint" />
            <mxPoint x="40.5" y="168" as="targetPoint" />
          </mxGeometry>
        </mxCell>
        <mxCell id="egm4CPHPBf7wos1IfI1G-26" value="&lt;font style=&quot;font-size: 14px;&quot;&gt;id_equipamento&lt;/font&gt;" style="ellipse;whiteSpace=wrap;html=1;fillColor=#f8cecc;gradientColor=#ea6b66;strokeColor=#b85450;" vertex="1" parent="1">
          <mxGeometry x="-114" y="470" width="121" height="57" as="geometry" />
        </mxCell>
        <mxCell id="egm4CPHPBf7wos1IfI1G-27" value="" style="endArrow=none;html=1;rounded=0;fontSize=12;startSize=8;endSize=8;curved=1;" edge="1" parent="1">
          <mxGeometry width="50" height="50" relative="1" as="geometry">
            <mxPoint x="-103.5" y="510" as="sourcePoint" />
            <mxPoint x="-3.5" y="510" as="targetPoint" />
          </mxGeometry>
        </mxCell>
        <mxCell id="egm4CPHPBf7wos1IfI1G-28" value="&lt;font style=&quot;font-size: 14px;&quot;&gt;id_comentario&lt;/font&gt;" style="ellipse;whiteSpace=wrap;html=1;fillColor=#f8cecc;gradientColor=#ea6b66;strokeColor=#b85450;" vertex="1" parent="1">
          <mxGeometry x="617" y="482" width="109" height="57" as="geometry" />
        </mxCell>
        <mxCell id="egm4CPHPBf7wos1IfI1G-29" value="" style="endArrow=none;html=1;rounded=0;fontSize=12;startSize=8;endSize=8;curved=1;" edge="1" parent="1">
          <mxGeometry width="50" height="50" relative="1" as="geometry">
            <mxPoint x="628.5" y="523" as="sourcePoint" />
            <mxPoint x="714.5" y="523" as="targetPoint" />
          </mxGeometry>
        </mxCell>
        <mxCell id="egm4CPHPBf7wos1IfI1G-33" value="" style="endArrow=none;html=1;rounded=0;fontSize=12;startSize=8;endSize=8;curved=1;exitX=1;exitY=0.5;exitDx=0;exitDy=0;entryX=0;entryY=0.5;entryDx=0;entryDy=0;" edge="1" parent="1" source="egm4CPHPBf7wos1IfI1G-2" target="egm4CPHPBf7wos1IfI1G-7">
          <mxGeometry width="50" height="50" relative="1" as="geometry">
            <mxPoint x="241" y="87.5" as="sourcePoint" />
            <mxPoint x="291" y="37.5" as="targetPoint" />
          </mxGeometry>
        </mxCell>
        <mxCell id="egm4CPHPBf7wos1IfI1G-34" value="" style="endArrow=none;html=1;rounded=0;fontSize=12;startSize=8;endSize=8;curved=1;exitX=1;exitY=0.5;exitDx=0;exitDy=0;entryX=0;entryY=0.5;entryDx=0;entryDy=0;" edge="1" parent="1">
          <mxGeometry width="50" height="50" relative="1" as="geometry">
            <mxPoint x="499" y="69.5" as="sourcePoint" />
            <mxPoint x="735" y="69.5" as="targetPoint" />
          </mxGeometry>
        </mxCell>
        <mxCell id="egm4CPHPBf7wos1IfI1G-35" value="" style="endArrow=none;html=1;rounded=0;fontSize=12;startSize=8;endSize=8;exitX=0.974;exitY=0.632;exitDx=0;exitDy=0;exitPerimeter=0;" edge="1" parent="1">
          <mxGeometry width="50" height="50" relative="1" as="geometry">
            <mxPoint x="172.8800000000001" y="432.41999999999985" as="sourcePoint" />
            <mxPoint x="404" y="430" as="targetPoint" />
          </mxGeometry>
        </mxCell>
        <mxCell id="egm4CPHPBf7wos1IfI1G-36" value="" style="endArrow=none;html=1;rounded=0;fontSize=12;startSize=8;endSize=8;curved=1;exitX=1;exitY=0.5;exitDx=0;exitDy=0;entryX=0;entryY=0.5;entryDx=0;entryDy=0;" edge="1" parent="1" target="egm4CPHPBf7wos1IfI1G-4">
          <mxGeometry width="50" height="50" relative="1" as="geometry">
            <mxPoint x="487.5" y="430.5" as="sourcePoint" />
            <mxPoint x="727" y="431" as="targetPoint" />
          </mxGeometry>
        </mxCell>
        <mxCell id="egm4CPHPBf7wos1IfI1G-37" value="" style="endArrow=none;html=1;rounded=0;fontSize=12;startSize=8;endSize=8;curved=1;entryX=0.5;entryY=1;entryDx=0;entryDy=0;" edge="1" parent="1" target="egm4CPHPBf7wos1IfI1G-39">
          <mxGeometry width="50" height="50" relative="1" as="geometry">
            <mxPoint x="801" y="396" as="sourcePoint" />
            <mxPoint x="801" y="259" as="targetPoint" />
          </mxGeometry>
        </mxCell>
        <mxCell id="egm4CPHPBf7wos1IfI1G-38" value="" style="endArrow=none;html=1;rounded=0;fontSize=12;startSize=8;endSize=8;curved=1;exitX=0.542;exitY=0.967;exitDx=0;exitDy=0;exitPerimeter=0;" edge="1" parent="1" source="egm4CPHPBf7wos1IfI1G-3" target="egm4CPHPBf7wos1IfI1G-39">
          <mxGeometry width="50" height="50" relative="1" as="geometry">
            <mxPoint x="865" y="79.5" as="sourcePoint" />
            <mxPoint x="1040.4590296114375" y="240.07902961143714" as="targetPoint" />
          </mxGeometry>
        </mxCell>
        <mxCell id="egm4CPHPBf7wos1IfI1G-39" value="&lt;font style=&quot;font-size: 15px;&quot;&gt;Faz&lt;/font&gt;" style="rhombus;whiteSpace=wrap;html=1;fillColor=#fff2cc;gradientColor=#ffd966;strokeColor=#d6b656;" vertex="1" parent="1">
          <mxGeometry x="762" y="211" width="80" height="76" as="geometry" />
        </mxCell>
        <mxCell id="egm4CPHPBf7wos1IfI1G-41" value="&lt;font style=&quot;font-size: 14px;&quot;&gt;id_usuario&lt;/font&gt;" style="ellipse;whiteSpace=wrap;html=1;fillColor=#f8cecc;gradientColor=#ea6b66;strokeColor=#b85450;" vertex="1" parent="1">
          <mxGeometry x="633" y="-77" width="109" height="57" as="geometry" />
        </mxCell>
        <mxCell id="egm4CPHPBf7wos1IfI1G-42" value="" style="endArrow=none;html=1;rounded=0;fontSize=12;startSize=8;endSize=8;curved=1;" edge="1" parent="1">
          <mxGeometry width="50" height="50" relative="1" as="geometry">
            <mxPoint x="653.5" y="-37" as="sourcePoint" />
            <mxPoint x="721.5" y="-37" as="targetPoint" />
          </mxGeometry>
        </mxCell>
        <mxCell id="egm4CPHPBf7wos1IfI1G-43" value="1" style="text;html=1;align=center;verticalAlign=middle;resizable=0;points=[];autosize=1;strokeColor=none;fillColor=none;fontSize=16;" vertex="1" parent="1">
          <mxGeometry x="277.5" y="36.5" width="27" height="31" as="geometry" />
        </mxCell>
        <mxCell id="egm4CPHPBf7wos1IfI1G-44" value="1" style="text;html=1;align=center;verticalAlign=middle;resizable=0;points=[];autosize=1;strokeColor=none;fillColor=none;fontSize=16;" vertex="1" parent="1">
          <mxGeometry x="603.5" y="38.5" width="27" height="31" as="geometry" />
        </mxCell>
        <mxCell id="egm4CPHPBf7wos1IfI1G-45" value="1" style="text;html=1;align=center;verticalAlign=middle;resizable=0;points=[];autosize=1;strokeColor=none;fillColor=none;fontSize=16;" vertex="1" parent="1">
          <mxGeometry x="800.5" y="145.5" width="27" height="31" as="geometry" />
        </mxCell>
        <mxCell id="egm4CPHPBf7wos1IfI1G-46" value="N" style="text;html=1;align=center;verticalAlign=middle;resizable=0;points=[];autosize=1;strokeColor=none;fillColor=none;fontSize=16;" vertex="1" parent="1">
          <mxGeometry x="801.5" y="328.5" width="30" height="31" as="geometry" />
        </mxCell>
        <mxCell id="egm4CPHPBf7wos1IfI1G-47" value="N" style="text;html=1;align=center;verticalAlign=middle;resizable=0;points=[];autosize=1;strokeColor=none;fillColor=none;fontSize=16;" vertex="1" parent="1">
          <mxGeometry x="579.5" y="400.5" width="30" height="31" as="geometry" />
        </mxCell>
        <mxCell id="egm4CPHPBf7wos1IfI1G-48" value="1" style="text;html=1;align=center;verticalAlign=middle;resizable=0;points=[];autosize=1;strokeColor=none;fillColor=none;fontSize=16;" vertex="1" parent="1">
          <mxGeometry x="269.5" y="394.5" width="27" height="31" as="geometry" />
        </mxCell>
        <mxCell id="egm4CPHPBf7wos1IfI1G-50" value="&lt;font style=&quot;font-size: 14px;&quot;&gt;data&lt;/font&gt;" style="ellipse;whiteSpace=wrap;html=1;fillColor=#d5e8d4;gradientColor=#97d077;strokeColor=#82b366;" vertex="1" parent="1">
          <mxGeometry x="207" y="470" width="109" height="57" as="geometry" />
        </mxCell>
        <mxCell id="egm4CPHPBf7wos1IfI1G-51" value="" style="endArrow=none;html=1;rounded=0;fontSize=12;startSize=8;endSize=8;curved=1;exitX=0.725;exitY=0.035;exitDx=0;exitDy=0;exitPerimeter=0;" edge="1" parent="1" source="egm4CPHPBf7wos1IfI1G-15">
          <mxGeometry width="50" height="50" relative="1" as="geometry">
            <mxPoint x="9" y="150" as="sourcePoint" />
            <mxPoint x="59" y="100" as="targetPoint" />
          </mxGeometry>
        </mxCell>
        <mxCell id="egm4CPHPBf7wos1IfI1G-52" value="" style="endArrow=none;html=1;rounded=0;fontSize=12;startSize=8;endSize=8;curved=1;entryX=0.5;entryY=1;entryDx=0;entryDy=0;" edge="1" parent="1" target="egm4CPHPBf7wos1IfI1G-2">
          <mxGeometry width="50" height="50" relative="1" as="geometry">
            <mxPoint x="120" y="191" as="sourcePoint" />
            <mxPoint x="122" y="100" as="targetPoint" />
          </mxGeometry>
        </mxCell>
        <mxCell id="egm4CPHPBf7wos1IfI1G-53" value="" style="endArrow=none;html=1;rounded=0;fontSize=12;startSize=8;endSize=8;curved=1;" edge="1" parent="1">
          <mxGeometry width="50" height="50" relative="1" as="geometry">
            <mxPoint x="213" y="134" as="sourcePoint" />
            <mxPoint x="179" y="101" as="targetPoint" />
          </mxGeometry>
        </mxCell>
        <mxCell id="egm4CPHPBf7wos1IfI1G-54" value="" style="endArrow=none;html=1;rounded=0;fontSize=12;startSize=8;endSize=8;curved=1;entryX=0.596;entryY=1.018;entryDx=0;entryDy=0;entryPerimeter=0;" edge="1" parent="1" target="egm4CPHPBf7wos1IfI1G-41">
          <mxGeometry width="50" height="50" relative="1" as="geometry">
            <mxPoint x="765" y="38" as="sourcePoint" />
            <mxPoint x="705" y="-20" as="targetPoint" />
          </mxGeometry>
        </mxCell>
        <mxCell id="egm4CPHPBf7wos1IfI1G-55" value="" style="endArrow=none;html=1;rounded=0;fontSize=12;startSize=8;endSize=8;curved=1;entryX=0.596;entryY=1.018;entryDx=0;entryDy=0;entryPerimeter=0;exitX=0.75;exitY=0;exitDx=0;exitDy=0;" edge="1" parent="1" source="egm4CPHPBf7wos1IfI1G-3">
          <mxGeometry width="50" height="50" relative="1" as="geometry">
            <mxPoint x="954" y="40" as="sourcePoint" />
            <mxPoint x="887" y="-17" as="targetPoint" />
          </mxGeometry>
        </mxCell>
        <mxCell id="egm4CPHPBf7wos1IfI1G-56" value="" style="endArrow=none;html=1;rounded=0;fontSize=12;startSize=8;endSize=8;curved=1;" edge="1" parent="1">
          <mxGeometry width="50" height="50" relative="1" as="geometry">
            <mxPoint x="706" y="488" as="sourcePoint" />
            <mxPoint x="740" y="456" as="targetPoint" />
          </mxGeometry>
        </mxCell>
        <mxCell id="egm4CPHPBf7wos1IfI1G-57" value="" style="endArrow=none;html=1;rounded=0;fontSize=12;startSize=8;endSize=8;curved=1;entryX=0;entryY=1;entryDx=0;entryDy=0;exitX=0.983;exitY=0.386;exitDx=0;exitDy=0;exitPerimeter=0;" edge="1" parent="1" source="egm4CPHPBf7wos1IfI1G-26" target="egm4CPHPBf7wos1IfI1G-5">
          <mxGeometry width="50" height="50" relative="1" as="geometry">
            <mxPoint x="91" y="552" as="sourcePoint" />
            <mxPoint x="90" y="461" as="targetPoint" />
          </mxGeometry>
        </mxCell>
        <mxCell id="egm4CPHPBf7wos1IfI1G-58" value="" style="endArrow=none;html=1;rounded=0;fontSize=12;startSize=8;endSize=8;curved=1;exitX=1;exitY=0;exitDx=0;exitDy=0;entryX=0.159;entryY=0.946;entryDx=0;entryDy=0;entryPerimeter=0;" edge="1" parent="1">
          <mxGeometry width="50" height="50" relative="1" as="geometry">
            <mxPoint x="20.200425027995834" y="563.4331129484467" as="sourcePoint" />
            <mxPoint x="73.07999999999993" y="454.26" as="targetPoint" />
          </mxGeometry>
        </mxCell>
        <mxCell id="egm4CPHPBf7wos1IfI1G-59" value="" style="endArrow=none;html=1;rounded=0;fontSize=12;startSize=8;endSize=8;curved=1;exitX=0.67;exitY=0.035;exitDx=0;exitDy=0;exitPerimeter=0;entryX=0.379;entryY=0.964;entryDx=0;entryDy=0;entryPerimeter=0;" edge="1" parent="1">
          <mxGeometry width="50" height="50" relative="1" as="geometry">
            <mxPoint x="54.0300000000002" y="628.9950000000001" as="sourcePoint" />
            <mxPoint x="99.47999999999979" y="454.3399999999999" as="targetPoint" />
          </mxGeometry>
        </mxCell>
        <mxCell id="egm4CPHPBf7wos1IfI1G-60" value="" style="endArrow=none;html=1;rounded=0;fontSize=12;startSize=8;endSize=8;curved=1;entryX=0.596;entryY=1;entryDx=0;entryDy=0;entryPerimeter=0;" edge="1" parent="1" source="egm4CPHPBf7wos1IfI1G-17" target="egm4CPHPBf7wos1IfI1G-5">
          <mxGeometry width="50" height="50" relative="1" as="geometry">
            <mxPoint x="64" y="637" as="sourcePoint" />
            <mxPoint x="94" y="471" as="targetPoint" />
          </mxGeometry>
        </mxCell>
        <mxCell id="egm4CPHPBf7wos1IfI1G-61" value="" style="endArrow=none;html=1;rounded=0;fontSize=12;startSize=8;endSize=8;curved=1;exitX=0.225;exitY=0.105;exitDx=0;exitDy=0;entryX=0.75;entryY=1;entryDx=0;entryDy=0;exitPerimeter=0;" edge="1" parent="1" source="egm4CPHPBf7wos1IfI1G-18" target="egm4CPHPBf7wos1IfI1G-5">
          <mxGeometry width="50" height="50" relative="1" as="geometry">
            <mxPoint x="96.5" y="557" as="sourcePoint" />
            <mxPoint x="136" y="464" as="targetPoint" />
          </mxGeometry>
        </mxCell>
        <mxCell id="egm4CPHPBf7wos1IfI1G-62" value="" style="endArrow=none;html=1;rounded=0;fontSize=12;startSize=8;endSize=8;curved=1;exitX=0.064;exitY=0.281;exitDx=0;exitDy=0;exitPerimeter=0;entryX=1;entryY=1;entryDx=0;entryDy=0;" edge="1" parent="1" source="egm4CPHPBf7wos1IfI1G-50" target="egm4CPHPBf7wos1IfI1G-5">
          <mxGeometry width="50" height="50" relative="1" as="geometry">
            <mxPoint x="124.5" y="489.5" as="sourcePoint" />
            <mxPoint x="171" y="459" as="targetPoint" />
          </mxGeometry>
        </mxCell>
        <mxCell id="egm4CPHPBf7wos1IfI1G-63" value="" style="endArrow=none;html=1;rounded=0;fontSize=12;startSize=8;endSize=8;curved=1;entryX=0.333;entryY=1.042;entryDx=0;entryDy=0;exitX=0.55;exitY=0;exitDx=0;exitDy=0;exitPerimeter=0;entryPerimeter=0;" edge="1" parent="1" source="egm4CPHPBf7wos1IfI1G-19" target="egm4CPHPBf7wos1IfI1G-4">
          <mxGeometry width="50" height="50" relative="1" as="geometry">
            <mxPoint x="716" y="498" as="sourcePoint" />
            <mxPoint x="750" y="466" as="targetPoint" />
          </mxGeometry>
        </mxCell>
        <mxCell id="egm4CPHPBf7wos1IfI1G-64" value="" style="endArrow=none;html=1;rounded=0;fontSize=12;startSize=8;endSize=8;curved=1;exitX=0.294;exitY=0.07;exitDx=0;exitDy=0;exitPerimeter=0;" edge="1" parent="1" source="egm4CPHPBf7wos1IfI1G-20">
          <mxGeometry width="50" height="50" relative="1" as="geometry">
            <mxPoint x="813" y="549" as="sourcePoint" />
            <mxPoint x="821" y="460" as="targetPoint" />
          </mxGeometry>
        </mxCell>
        <mxCell id="egm4CPHPBf7wos1IfI1G-65" value="" style="endArrow=none;html=1;rounded=0;fontSize=12;startSize=8;endSize=8;curved=1;entryX=1;entryY=1;entryDx=0;entryDy=0;exitX=0;exitY=0;exitDx=0;exitDy=0;" edge="1" parent="1" source="egm4CPHPBf7wos1IfI1G-21" target="egm4CPHPBf7wos1IfI1G-4">
          <mxGeometry width="50" height="50" relative="1" as="geometry">
            <mxPoint x="901" y="488" as="sourcePoint" />
            <mxPoint x="861.5" y="461" as="targetPoint" />
          </mxGeometry>
        </mxCell>
      </root>
    </mxGraphModel>
  </diagram>
</mxfile>
